:SAMPLES-PER-SECOND 30
:FULLY-SPECIFIED
:DEGREES
351
root  57.5972 39.2864 17.6163 177.878 -1.22762 173.979
RightUpLeg  0.616732 -22.2144 -22.7645
RightLeg  3.83299 -43.7541 4.61439
RightFoot  10.3824 0.0225556 0.258889
RightToes  -5.8209e-011 0 -3.6325e-017
Spine  13.0813 -3.13145 1.51713
Spine1  3.10065 -4.23948 5.25139
HEad  -6.79115 -8.99641 -26.1541
LeftShoulder1  -0.0400438 3.62344 -27.5524
LeftArm  -22.1493 12.8673 -23.5515
LeftForeArm  0.0832132 -21.2851 -4.24668
LeftHand  -0.200633 3.52276 11.9041
RightShoulder  -0.373756 -4.64808 25.7398
RightArm  31.7746 -20.7184 41.4861
RightForeArm  4.60606 20.5802 5.06964
RightHand  -0.0147205 -1.39115 -0.138526
LeftUpLeg  6.99754 14.8372 9.11565
LeftLeg  4.58873 49.4652 -2.57621
LeftFoot  0.406607 0.152391 -1.34137
LeftToes  8.00323e-011 7.86695e-011 -1.03868e-010
352
root  56.5615 39.1211 17.926 178.479 -7.55832 173.876
RightUpLeg  2.67384 -23.8439 -26.0221
RightLeg  3.95253 -46.4913 4.91902
RightFoot  11.1134 -0.176438 1.28466
RightToes  -5.8209e-011 0 -3.6325e-017
Spine  12.8369 -2.98977 1.02606
Spine1  2.12011 -4.0057 4.78856
HEad  -4.6359 -12.8192 -25.3172
LeftShoulder1  -0.199655 4.08804 -27.9737
LeftArm  -20.3917 9.38142 -25.1671
LeftForeArm  0.1477 -22.9293 -4.87275
LeftHand  -0.155586 3.99575 12.1128
RightShoulder  -0.406213 -4.75105 25.6216
RightArm  30.7165 -19.934 38.7391
RightForeArm  4.52701 20.1841 5.14964
RightHand  -0.121108 -0.738575 -2.95864
LeftUpLeg  5.38067 14.5431 7.72847
LeftLeg  4.44008 45.243 -3.27004
LeftFoot  2.43098 0.608122 -5.21449
LeftToes  8.00323e-011 7.86695e-011 -1.03868e-010
353
root  55.5522 39.0147 18.2206 178.734 -13.8403 172.549
RightUpLeg  5.29521 -24.8123 -29.9062
RightLeg  3.70388 -43.6927 4.12291
RightFoot  9.67331 -0.854337 4.98695
RightToes  -5.8209e-011 0 -3.6325e-017
Spine  12.4783 -2.39379 -0.457071
Spine1  2.68931 -3.42763 3.90912
HEad  -3.0486 -18.308 -24.2235
LeftShoulder1  -0.205713 4.07818 -29.7333
LeftArm  -19.4208 3.55344 -27.6201
LeftForeArm  1.54658 -22.3738 -4.65863
LeftHand  -0.227747 3.18431 11.3887
RightShoulder  -0.571004 -5.26111 25.7318
RightArm  26.1395 -18.4587 36.4357
RightForeArm  5.49923 17.3615 5.81835
RightHand  -0.213592 -0.117194 -4.77224
LeftUpLeg  2.88702 14.9338 4.86068
LeftLeg  8.25269 38.8183 -1.51379
LeftFoot  0.0959682 0.356189 -3.5444
LeftToes  8.00323e-011 7.86695e-011 -1.03868e-010
354
root  54.5354 38.9264 18.4629 179.292 -19.8484 171.449
RightUpLeg  6.32855 -25.112 -32.4351
RightLeg  4.43925 -29.4448 2.53466
RightFoot  6.63188 -0.998023 6.55579
RightToes  -5.8209e-011 0 -3.6325e-017
Spine  12.0266 -2.17797 0.0120385
Spine1  2.87857 -2.60285 0.769146
HEad  -0.446272 -23.2624 -24.2323
LeftShoulder1  -0.150508 3.92042 -30.0242
LeftArm  -15.524 -1.92624 -31.2913
LeftForeArm  0.575771 -19.2688 -4.21862
LeftHand  -0.0647051 4.83228 10.119
RightShoulder  -0.678544 -5.56255 26.2954
RightArm  21.1578 -17.5209 34.5448
RightForeArm  6.56776 13.0925 6.82968
RightHand  -0.249182 0.88921 -4.74109
LeftUpLeg  0.585382 13.2322 1.20634
LeftLeg  11.2066 35.1602 0.846255
LeftFoot  -1.58732 0.149205 -1.65089
LeftToes  8.00323e-011 7.86695e-011 -1.03868e-010
355
root  53.6239 38.9153 18.6433 179.412 -24.7151 171.307
RightUpLeg  5.32342 -23.3522 -31.4375
RightLeg  6.63424 -11.3721 0.375562
RightFoot  4.2507 -0.888198 6.71202
RightToes  -5.8209e-011 0 -3.6325e-017
Spine  11.6891 -2.17866 1.99619
Spine1  3.49373 -1.68661 -3.4946
HEad  1.54389 -27.5073 -24.2438
LeftShoulder1  -0.202622 4.06825 -29.5001
LeftArm  -12.4026 -5.51199 -35.8219
LeftForeArm  1.81471 -15.5955 -4.36898
LeftHand  -0.0298832 5.2389 8.77823
RightShoulder  -0.624931 -5.36095 26.8366
RightArm  19.2025 -16.436 33.3176
RightForeArm  6.72807 9.72241 7.55429
RightHand  -0.226575 -0.0273611 -4.86634
LeftUpLeg  0.035182 10.6437 -0.837785
LeftLeg  11.8908 33.4048 1.37645
LeftFoot  -2.87612 0.0631717 -0.628498
LeftToes  8.00323e-011 7.86695e-011 -1.03868e-010
356
root  52.8413 38.8878 18.7664 179.328 -29.4233 171.259
RightUpLeg  2.7765 -18.6486 -28.9274
RightLeg  13.0202 -0.293098 -0.64244
RightFoot  2.08109 -0.892903 7.67468
RightToes  -5.8209e-011 0 -3.6325e-017
Spine  12.4405 -1.89349 0.784677
Spine1  3.22814 -1.80022 -2.87451
HEad  3.37651 -29.7195 -26.7401
LeftShoulder1  -0.302389 4.31324 -31.278
LeftArm  -9.4143 -6.1282 -38.8468
LeftForeArm  3.43332 -13.798 -5.28698
LeftHand  -0.0423552 5.03749 7.25339
RightShoulder  -0.398327 -4.74268 25.2634
RightArm  20.3172 -15.5224 33.0055
RightForeArm  8.38896 8.33171 8.17541
RightHand  -0.124088 -0.399426 -2.90611
LeftUpLeg  0.252397 9.35001 -2.12093
LeftLeg  11.9881 30.2168 1.13231
LeftFoot  -4.35156 0.0425479 -0.271991
LeftToes  8.00323e-011 7.86695e-011 -1.03868e-010
357
root  52.1953 38.863 18.8292 179.381 -35.0609 171.511
RightUpLeg  0.221099 -12.8915 -25.7357
RightLeg  21.0543 1.07793 0.217802
RightFoot  -0.71923 -0.690837 7.38105
RightToes  -5.8209e-011 0 -3.6325e-017
Spine  13.3298 -2.26326 -0.54229
Spine1  2.82349 -2.60658 -2.26715
HEad  4.78429 -31.3869 -28.5418
LeftShoulder1  -0.161593 3.93784 -31.1219
LeftArm  -7.36007 -4.40455 -42.4163
LeftForeArm  6.13633 -12.7741 -6.03713
LeftHand  -0.0159384 5.50173 6.57076
RightShoulder  -0.361257 -4.625 25.2118
RightArm  22.8068 -14.6151 32.7335
RightForeArm  8.67625 9.30265 8.59776
RightHand  -0.165399 -0.753621 -4.08146
LeftUpLeg  0.209335 8.66564 -2.94735
LeftLeg  12.1473 25.5752 1.04945
LeftFoot  -5.63878 0.0274346 0.139111
LeftToes  8.00323e-011 7.86695e-011 -1.03868e-010
